<svg width="16" height="16" viewBox="0 0 16 16" fill="none" xmlns="http://www.w3.org/2000/svg">
<path fill-rule="evenodd" clip-rule="evenodd" d="M8.35335 10.8533C8.2596 10.9469 8.13252 10.9995 8.00002 10.9995C7.86752 10.9995 7.74044 10.9469 7.64669 10.8533L2.64669 5.85331C2.55837 5.75853 2.51028 5.63316 2.51257 5.50363C2.51486 5.3741 2.56733 5.25051 2.65894 5.1589C2.75055 5.06729 2.87414 5.01481 3.00367 5.01253C3.13321 5.01024 3.25857 5.05833 3.35335 5.14665L8.00002 9.79331L12.6467 5.14665C12.7415 5.05833 12.8668 5.01024 12.9964 5.01253C13.1259 5.01481 13.2495 5.06729 13.3411 5.1589C13.4327 5.25051 13.4852 5.3741 13.4875 5.50363C13.4898 5.63317 13.4417 5.75853 13.3534 5.85331L8.35335 10.8533Z" fill="#005E89"/>
</svg>
