<svg width="12" height="12" viewBox="0 0 12 12" fill="none" xmlns="http://www.w3.org/2000/svg">
<path d="M10.3567 4.06406L10.2334 4.3469C10.1432 4.55396 9.8568 4.55396 9.76655 4.3469L9.6433 4.06406C9.42355 3.55974 9.02775 3.15821 8.53385 2.93854L8.154 2.76961C7.94865 2.67827 7.94865 2.37941 8.154 2.28806L8.5126 2.12857C9.0192 1.90326 9.4221 1.48687 9.63805 0.965415L9.76465 0.659765C9.8529 0.446745 10.1471 0.446745 10.2353 0.659765L10.3619 0.965415C10.5779 1.48687 10.9808 1.90326 11.4874 2.12857L11.846 2.28806C12.0514 2.37941 12.0514 2.67827 11.846 2.76961L11.4662 2.93854C10.9722 3.15821 10.5765 3.55974 10.3567 4.06406ZM11 10V5.3293C10.6872 5.43985 10.3506 5.5 10 5.5C9.53765 5.5 9.0997 5.3954 8.7086 5.2086C8.8954 5.5997 9 6.03765 9 6.5C9 8.15685 7.65685 9.5 6 9.5C4.34314 9.5 3 8.15685 3 6.5C3 4.84315 4.34314 3.5 6 3.5C6.46235 3.5 6.9003 3.6046 7.2914 3.79142C7.1046 3.40029 7 2.96236 7 2.5C7 2.14937 7.06015 1.81278 7.1707 1.5H4.5L3.5 2.5H1.5C1.22386 2.5 1 2.72386 1 3V10C1 10.2761 1.22386 10.5 1.5 10.5H10.5C10.7761 10.5 11 10.2761 11 10ZM6 8.5C4.89543 8.5 4 7.60455 4 6.5C4 5.39545 4.89543 4.5 6 4.5C7.10455 4.5 8 5.39545 8 6.5C8 7.60455 7.10455 8.5 6 8.5Z" fill="url(#paint0_linear_483_1760)"/>
<defs>
<linearGradient id="paint0_linear_483_1760" x1="6.5" y1="0.5" x2="6.5" y2="10.5" gradientUnits="userSpaceOnUse">
<stop stop-color="#8E2DE2"/>
<stop offset="1" stop-color="#4A00E0"/>
</linearGradient>
</defs>
</svg>
