<svg width="32" height="32" viewBox="0 0 32 32" fill="none" xmlns="http://www.w3.org/2000/svg">
<g clip-path="url(#clip0_494_352)">
<rect width="32" height="32" rx="6" fill="#005E89"/>
<path d="M2.82638 25.0831C1.04394 22.5028 0 19.3733 0 16C0 7.16344 7.16344 0 16 0C24.8366 0 32 7.16344 32 16C32 24.8366 24.8366 32 16 32C13.5243 32 11.1798 31.4377 9.08744 30.4338L2.82638 25.0831Z" fill="#005E89"/>
<path d="M22.8539 19.8537L17.6471 21.9619H13.0934L16.5672 20.5519C16.7608 20.4734 16.9034 20.3049 16.9492 20.1011C17.0518 19.6435 16.6415 19.2356 16.1845 19.341L9.56357 20.8678C8.47482 21.1189 7.50295 21.7307 6.80595 22.6039L4.42676 25.5844L8.58588 29.7435L10.8755 25.0156H16.6363C17.4403 25.0156 18.2248 24.7678 18.8828 24.3059L23.5094 21.0582C23.6161 20.9833 23.6994 20.8797 23.7496 20.7594C23.986 20.1937 23.4223 19.6237 22.8539 19.8537Z" fill="#FFDECF"/>
<path d="M22.8534 19.8531L17.6467 21.9612H16V25.015H16.6359C17.4399 25.015 18.2243 24.7672 18.8824 24.3052L23.5089 21.0576C23.6156 20.9827 23.6989 20.8791 23.7492 20.7589C23.9856 20.1931 23.4218 19.623 22.8534 19.8531Z" fill="#FFCDBE"/>
<path d="M2.82617 25.0828C4.40473 27.3679 6.56248 29.2222 9.0873 30.4335L11.0964 27.4982L4.33855 22.873L2.82617 25.0828Z" fill="white"/>
<path d="M22.5088 8.90234H24.3838V13.891H22.5088V8.90234Z" fill="#E9EDF5"/>
<path d="M21.4567 15.0872L16.0161 16.8784L10.5439 15.0872V8.43555H21.4567V15.0872Z" fill="white"/>
<path d="M16 8.43555L16.0158 16.8784L21.4564 15.0872V8.43555H16Z" fill="#E6E6E6"/>
<path d="M6.9248 7.21094H25.0747V9.66075H6.9248V7.21094Z" fill="#BFBFBF"/>
<path d="M16 7.21094H25.0749V9.66075H16V7.21094Z" fill="#BFBFBF"/>
<path d="M24.8468 16.2498H22.0452V14.268C22.0452 13.4944 22.6724 12.8672 23.446 12.8672C24.2196 12.8672 24.8468 13.4944 24.8468 14.268V16.2498Z" fill="#FFCE00"/>
</g>
<defs>
<clipPath id="clip0_494_352">
<rect width="32" height="32" rx="6" fill="white"/>
</clipPath>
</defs>
</svg>
