<svg width="32" height="32" viewBox="0 0 32 32" fill="none" xmlns="http://www.w3.org/2000/svg">
<g clip-path="url(#clip0_285_934)">
<rect width="32" height="32" rx="6" fill="url(#paint0_linear_285_934)"/>
<path d="M2.82638 25.0831C1.04394 22.5028 0 19.3733 0 16C0 7.16344 7.16344 0 16 0C24.8366 0 32 7.16344 32 16C32 24.8366 24.8366 32 16 32C13.5243 32 11.1798 31.4377 9.08744 30.4338L2.82638 25.0831Z" fill="url(#paint1_linear_285_934)"/>
<path d="M22.8534 19.8537L17.6466 21.9619H13.0929L16.5667 20.5519C16.7603 20.4734 16.903 20.3049 16.9487 20.1011C17.0513 19.6435 16.641 19.2356 16.184 19.341L9.56308 20.8678C8.47433 21.1189 7.50246 21.7307 6.80546 22.6039L4.42627 25.5844L8.58539 29.7435L10.875 25.0156H16.6358C17.4398 25.0156 18.2243 24.7678 18.8823 24.3059L23.5089 21.0582C23.6156 20.9833 23.6989 20.8797 23.7491 20.7594C23.9855 20.1937 23.4218 19.6237 22.8534 19.8537Z" fill="#FFDECF"/>
<path d="M22.8534 19.8531L17.6467 21.9612H16V25.015H16.6359C17.4399 25.015 18.2243 24.7672 18.8824 24.3052L23.5089 21.0576C23.6156 20.9827 23.6989 20.8791 23.7492 20.7589C23.9856 20.1931 23.4218 19.623 22.8534 19.8531Z" fill="#FFCDBE"/>
<path d="M2.82642 25.0828C4.40498 27.3679 6.56273 29.2222 9.08754 30.4335L11.0966 27.4982L4.33879 22.873L2.82642 25.0828Z" fill="#F5F5F5"/>
<path d="M22.5083 8.90234H24.3833V13.891H22.5083V8.90234Z" fill="#E9EDF5"/>
<path d="M21.4562 15.0872L16.0156 16.8784L10.5435 15.0872V8.43555H21.4562V15.0872Z" fill="white"/>
<path d="M16 8.43555L16.0158 16.8784L21.4564 15.0872V8.43555H16Z" fill="#E6E6E6"/>
<path d="M6.92505 7.21094H25.0749V9.66075H6.92505V7.21094Z" fill="#BFBFBF"/>
<path d="M16 7.21094H25.0749V9.66075H16V7.21094Z" fill="#BFBFBF"/>
<path d="M24.8468 16.2498H22.0452V14.268C22.0452 13.4944 22.6724 12.8672 23.446 12.8672C24.2196 12.8672 24.8468 13.4944 24.8468 14.268V16.2498Z" fill="#FFCE00"/>
</g>
<defs>
<linearGradient id="paint0_linear_285_934" x1="16" y1="0" x2="16" y2="32" gradientUnits="userSpaceOnUse">
<stop stop-color="#8E2DE2"/>
<stop offset="1" stop-color="#4A00E0"/>
</linearGradient>
<linearGradient id="paint1_linear_285_934" x1="16" y1="0" x2="16" y2="32" gradientUnits="userSpaceOnUse">
<stop stop-color="#8E2DE2"/>
<stop offset="1" stop-color="#4A00E0"/>
</linearGradient>
<clipPath id="clip0_285_934">
<rect width="32" height="32" rx="6" fill="white"/>
</clipPath>
</defs>
</svg>
