<svg width="27" height="26" viewBox="0 0 27 26" fill="none" xmlns="http://www.w3.org/2000/svg">
<g clip-path="url(#clip0_285_619)">
<path d="M24.3368 6.49898C23.14 6.49898 22.1698 7.4692 22.1698 8.66598C22.1703 8.89316 22.2068 9.11881 22.2781 9.33451L20.5207 10.4516C19.3636 11.1889 17.838 10.9445 16.969 9.88278L15.2462 7.7754C15.5204 7.40632 15.6686 6.95882 15.6688 6.49903C15.6688 5.30225 14.6986 4.33203 13.5018 4.33203C12.305 4.33203 11.3348 5.30225 11.3348 6.49903C11.335 6.95882 11.4832 7.40632 11.7574 7.7754L10.0346 9.88278C9.16577 10.9439 7.64089 11.1882 6.48403 10.4516L4.72562 9.33451C4.79698 9.11881 4.83354 8.89316 4.83395 8.66598C4.83415 7.4692 3.86414 6.49883 2.66731 6.49863C1.47057 6.49842 0.500203 7.46849 0.5 8.66527C0.499797 9.78872 1.35823 10.726 2.47736 10.8243L3.75804 18.5062C3.80147 18.7674 4.02738 18.959 4.29219 18.9591H22.7116C22.9764 18.959 23.2023 18.7674 23.2457 18.5062L24.5264 10.8243C25.7184 10.7174 26.5981 9.66439 26.4912 8.47238C26.3911 7.3566 25.4571 6.50106 24.3368 6.49898Z" fill="#FFC107"/>
<path d="M13.5019 21.1262C18.5883 21.1262 22.7116 19.9134 22.7116 18.4175C22.7116 16.9215 18.5883 15.7087 13.5019 15.7087C8.41554 15.7087 4.29224 16.9215 4.29224 18.4175C4.29224 19.9134 8.41554 21.1262 13.5019 21.1262Z" fill="#FFA000"/>
<path d="M13.5019 21.6679C8.65546 21.6679 3.75049 20.552 3.75049 18.4175C3.75049 16.283 8.65546 15.167 13.5019 15.167C18.3484 15.167 23.2533 16.283 23.2533 18.4175C23.2533 20.552 18.3484 21.6679 13.5019 21.6679ZM13.5019 16.2505C7.8114 16.2505 4.83396 17.659 4.83396 18.4175C4.83396 19.1759 7.8114 20.5845 13.5019 20.5845C19.1924 20.5845 22.1699 19.1759 22.1699 18.4175C22.1699 17.659 19.1924 16.2505 13.5019 16.2505Z" fill="#FFD54F"/>
</g>
<defs>
<clipPath id="clip0_285_619">
<rect width="26" height="26" fill="white" transform="translate(0.5)"/>
</clipPath>
</defs>
</svg>
