<svg width="32" height="32" viewBox="0 0 32 32" fill="none" xmlns="http://www.w3.org/2000/svg">
<g clip-path="url(#clip0_595_1159)">
<rect width="32" height="32" rx="6" fill="white"/>
<path fill-rule="evenodd" clip-rule="evenodd" d="M16 9.02414e-05C18.6679 9.02414e-05 22.5495 7.03309e-05 26.0006 8.81505e-05C29.3142 0.00010526 32 2.68595 32 5.99955C32 9.54388 32 13.3368 32 16.0001C32 18.7877 32 22.3477 32 25.9999C32 29.3136 29.3138 32 26.0001 32C22.4601 32.0001 18.8395 32.0001 16 32.0001C13.1219 32.0001 9.51991 32.0001 5.99992 32C2.68622 32 -1.55211e-06 29.3144 4.90884e-07 26.0007C2.67374e-06 22.4602 1.13924e-05 18.5847 1.13924e-05 16.0001C1.13924e-05 13.0055 9.40022e-06 9.64632 8.02403e-06 6.0001C6.77334e-06 2.68639 2.68594 5.1053e-06 5.99965 2.95945e-05C9.56004 5.59068e-05 13.3721 9.02414e-05 16 9.02414e-05ZM23.6043 18.1268C23.6049 18.1274 23.6056 18.1277 23.6064 18.1277V18.1277C23.608 18.1277 23.6093 18.129 23.6093 18.1307V25.3287C23.6093 25.6119 23.3783 25.843 23.0951 25.843H18.4434C18.1601 25.843 17.9291 25.6119 17.9291 25.3287V21.4134C17.9291 21.1302 17.6982 20.8991 17.4149 20.8991H14.5857C14.3025 20.8991 14.0714 21.1302 14.0714 21.4134V25.3287C14.0714 25.6119 13.8405 25.843 13.5573 25.843H8.90559C8.62237 25.843 8.39132 25.6119 8.39132 25.3287V20.5833C8.39132 19.0096 9.0096 17.4989 10.1129 16.3767L12.1842 14.2701L15.6108 10.7855C15.7113 10.6834 15.8345 10.6316 15.9777 10.6316C16.1207 10.6316 16.2439 10.6834 16.3443 10.7855L19.771 14.2701L23.6043 18.1268ZM16.7356 6.46472L22.0459 11.865L26.3689 16.2615C26.6656 16.5634 26.7476 16.9898 26.584 17.3802C26.4202 17.7707 26.0587 18.0112 25.6353 18.0112H25.6096C25.3232 18.0112 25.0768 17.908 24.8761 17.7037L20.5739 13.3283L16.7028 9.39133C16.5019 9.18724 16.2556 9.08381 15.9693 9.08381C15.6829 9.08381 15.4366 9.18724 15.2358 9.39133L11.3643 13.3283C9.93047 14.7867 8.49614 16.2454 7.06231 17.7037C7.0482 17.7181 7.03422 17.7306 7.02048 17.7412C6.84146 17.8991 6.6065 17.9948 6.34911 17.9948C5.78823 17.9948 5.33318 17.5399 5.33318 16.9787C5.33318 16.6689 5.47201 16.3915 5.69097 16.2051L9.95844 11.865L15.2687 6.46472C15.4695 6.2605 15.7158 6.15719 16.0023 6.15719C16.2885 6.15719 16.5349 6.26063 16.7356 6.46472Z" fill="url(#paint0_linear_595_1159)"/>
</g>
<defs>
<linearGradient id="paint0_linear_595_1159" x1="16" y1="0" x2="16" y2="32" gradientUnits="userSpaceOnUse">
<stop stop-color="#8E2DE2"/>
<stop offset="1" stop-color="#4A00E0"/>
</linearGradient>
<clipPath id="clip0_595_1159">
<rect width="32" height="32" rx="6" fill="white"/>
</clipPath>
</defs>
</svg>
