<svg width="32" height="32" viewBox="0 0 32 32" fill="none" xmlns="http://www.w3.org/2000/svg">
<g clip-path="url(#clip0_494_341)">
<rect width="32" height="32" rx="6" fill="#005E89"/>
<g clip-path="url(#clip1_494_341)">
<rect width="32" height="32" rx="16" fill="white"/>
<path fill-rule="evenodd" clip-rule="evenodd" d="M16 0C24.8351 0 32 7.16485 32 16C32 24.8351 24.8351 32 16 32C7.16485 32 0 24.8351 0 16C0 7.16485 7.16485 0 16 0ZM23.6052 18.1276H23.6093V25.3286C23.6093 25.6118 23.3783 25.8429 23.0951 25.8429H18.4433C18.1601 25.8429 17.9291 25.6118 17.9291 25.3286V21.4133C17.9291 21.1301 17.6981 20.899 17.4149 20.899H14.5857C14.3025 20.899 14.0714 21.1301 14.0714 21.4133V25.3286C14.0714 25.6118 13.8405 25.8429 13.5573 25.8429H8.90557C8.62236 25.8429 8.39131 25.6118 8.39131 25.3286V18.1276H8.39093L12.1842 14.27L15.6108 10.7854C15.7112 10.6833 15.8345 10.6316 15.9777 10.6316C16.1207 10.6316 16.2439 10.6833 16.3443 10.7854L19.771 14.27L23.6052 18.1276ZM16.7356 6.46463L22.0459 11.8649L26.3689 16.2614C26.6656 16.5633 26.7476 16.9897 26.5839 17.3802C26.4202 17.7706 26.0587 18.0111 25.6353 18.0111H25.6096C25.3232 18.0111 25.0768 17.9079 24.8761 17.7036L20.5739 13.3283L16.7027 9.39124C16.5019 9.18715 16.2556 9.08372 15.9693 9.08372C15.6829 9.08372 15.4366 9.18715 15.2358 9.39124L11.3643 13.3283C9.93046 14.7866 8.49613 16.2453 7.0623 17.7036C7.04819 17.718 7.0342 17.7305 7.02047 17.7411C6.84145 17.899 6.60649 17.9947 6.3491 17.9947C5.78822 17.9947 5.33317 17.5398 5.33317 16.9786C5.33317 16.6688 5.472 16.3914 5.69096 16.205L9.95843 11.8649L15.2687 6.46463C15.4695 6.26041 15.7158 6.1571 16.0023 6.1571C16.2885 6.1571 16.5349 6.26054 16.7356 6.46463Z" fill="#005E89"/>
</g>
</g>
<defs>
<clipPath id="clip0_494_341">
<rect width="32" height="32" rx="6" fill="white"/>
</clipPath>
<clipPath id="clip1_494_341">
<rect width="32" height="32" rx="16" fill="white"/>
</clipPath>
</defs>
</svg>
