<svg width="24" height="24" viewBox="0 0 24 24" fill="none" xmlns="http://www.w3.org/2000/svg">
<path d="M2.30999 16.755C2.25696 16.6513 2.23715 16.5337 2.25325 16.4183C2.26935 16.3029 2.32058 16.1953 2.39999 16.11L5.09999 12.45C5.20025 12.3217 5.25323 12.1628 5.24999 12V9C5.24999 7.20979 5.96115 5.4929 7.22702 4.22703C8.49289 2.96116 10.2098 2.25 12 2.25C13.7902 2.25 15.5071 2.96116 16.773 4.22703C18.0388 5.4929 18.75 7.20979 18.75 9V12C18.7467 12.1628 18.7997 12.3217 18.9 12.45L21.6 16.11C21.604 16.11 21.6078 16.1116 21.6106 16.1144C21.6134 16.1172 21.615 16.121 21.615 16.125C21.6896 16.2102 21.7366 16.316 21.75 16.4284C21.7634 16.5408 21.7425 16.6547 21.69 16.755C21.6012 16.9133 21.4698 17.0436 21.3107 17.1311C21.1517 17.2186 20.9713 17.2598 20.79 17.25H3.20999C3.02871 17.2598 2.84831 17.2186 2.68924 17.1311C2.53017 17.0436 2.39879 16.9133 2.30999 16.755ZM15 18.75H8.99999C8.99999 19.5456 9.31606 20.3087 9.87867 20.8713C10.4413 21.4339 11.2043 21.75 12 21.75C12.7956 21.75 13.5587 21.4339 14.1213 20.8713C14.6839 20.3087 15 19.5456 15 18.75Z" fill="#F5F5F5"/>
</svg>
