<svg width="32" height="32" viewBox="0 0 32 32" fill="none" xmlns="http://www.w3.org/2000/svg">
<g clip-path="url(#clip0_595_1168)">
<rect width="32" height="32" rx="6" fill="white"/>
<path d="M16 6.66527e-05C13.2312 6.66527e-05 9.39881 4.36265e-05 5.99905 6.75857e-05C2.68555 9.09369e-05 6.16491e-05 2.68606 3.96134e-05 5.99956C1.56198e-05 9.60747 2.54908e-05 13.4329 2.54908e-05 16.0001C2.54908e-05 18.4161 4.27325e-06 22.4611 5.53315e-07 26.0009C-2.92891e-06 29.3146 2.68622 32 5.99987 32C9.48279 32.0001 13.0507 32.0001 16 32.0001C18.4291 32.0001 22.4296 32.0001 26.0004 32C29.3141 32 32 29.3141 32 26.0004C32 22.6021 32 18.8628 32 16.0001C32 12.9671 32 9.62629 32 6.00012C32 2.68643 29.314 1.68837e-07 26.0003 1.86571e-05C22.4662 3.83752e-05 18.5028 6.66527e-05 16 6.66527e-05ZM16 4.87507C19.1719 4.87507 21.7432 7.44632 21.7432 10.6182C21.7432 13.7901 19.1719 16.3613 16 16.3613C12.8282 16.3613 10.2569 13.7901 10.2569 10.6182C10.2569 7.44632 12.8282 4.87507 16 4.87507ZM25.6013 24.0051C23.3082 26.7519 19.8582 28.5001 16 28.5001C12.1419 28.5001 8.6919 26.7519 6.39877 24.0051C6.0769 23.6188 5.95815 23.1044 6.07815 22.6163C6.62815 20.3738 7.91815 18.4213 9.67565 17.0338C10.2213 16.6032 10.9944 16.5919 11.5532 17.0069C12.7413 17.8901 14.2975 18.4251 16 18.4251C17.7025 18.4251 19.2588 17.8901 20.4469 17.0069C21.0057 16.5919 21.7788 16.6032 22.3244 17.0338C24.0819 18.4213 25.3719 20.3738 25.9219 22.6163C26.0419 23.1044 25.9232 23.6188 25.6013 24.0051Z" fill="url(#paint0_linear_595_1168)"/>
</g>
<defs>
<linearGradient id="paint0_linear_595_1168" x1="16" y1="0" x2="16" y2="32.0001" gradientUnits="userSpaceOnUse">
<stop stop-color="#8E2DE2"/>
<stop offset="1" stop-color="#4A00E0"/>
</linearGradient>
<clipPath id="clip0_595_1168">
<rect width="32" height="32" rx="6" fill="white"/>
</clipPath>
</defs>
</svg>
