<svg width="32" height="32" viewBox="0 0 32 32" fill="none" xmlns="http://www.w3.org/2000/svg">
<g clip-path="url(#clip0_285_970)">
<rect width="32" height="32" rx="6" fill="url(#paint0_linear_285_970)"/>
<path d="M16 31.625C24.6294 31.625 31.625 24.6294 31.625 16C31.625 7.37055 24.6294 0.375 16 0.375C7.37055 0.375 0.375 7.37055 0.375 16C0.375 24.6294 7.37055 31.625 16 31.625Z" fill="url(#paint1_linear_285_970)"/>
<path d="M7.3199 20.2909C9.59074 20.1004 10.6701 18.6776 10.6701 16.9582H7V10H14.6697V16.3664C14.6697 20.748 11.6847 23.6267 7.3199 24V20.2909ZM17.65 20.2909C19.9208 20.1004 20.9996 18.6776 20.9996 16.9582H17.3297V10H25V16.3664C25 20.748 22.015 23.6267 17.6502 24L17.65 20.2909Z" fill="#F5F5F5"/>
</g>
<defs>
<linearGradient id="paint0_linear_285_970" x1="16" y1="0" x2="16" y2="32" gradientUnits="userSpaceOnUse">
<stop stop-color="#8E2DE2"/>
<stop offset="1" stop-color="#4A00E0"/>
</linearGradient>
<linearGradient id="paint1_linear_285_970" x1="16" y1="0.375" x2="16" y2="31.625" gradientUnits="userSpaceOnUse">
<stop stop-color="#8E2DE2"/>
<stop offset="1" stop-color="#4A00E0"/>
</linearGradient>
<clipPath id="clip0_285_970">
<rect width="32" height="32" rx="6" fill="white"/>
</clipPath>
</defs>
</svg>
