<svg width="16" height="16" viewBox="0 0 16 16" fill="none" xmlns="http://www.w3.org/2000/svg">
<path fill-rule="evenodd" clip-rule="evenodd" d="M10.8533 7.64665C10.9469 7.7404 10.9995 7.86748 10.9995 7.99998C10.9995 8.13248 10.9469 8.25956 10.8533 8.35331L5.85331 13.3533C5.75853 13.4416 5.63317 13.4897 5.50363 13.4874C5.3741 13.4851 5.25051 13.4327 5.1589 13.3411C5.06729 13.2495 5.01481 13.1259 5.01253 12.9963C5.01024 12.8668 5.05833 12.7414 5.14665 12.6466L9.79331 7.99998L5.14665 3.35331C5.05833 3.25853 5.01024 3.13316 5.01253 3.00363C5.01481 2.8741 5.06729 2.75051 5.1589 2.6589C5.25051 2.56729 5.3741 2.51481 5.50363 2.51253C5.63317 2.51024 5.75853 2.55833 5.85331 2.64665L10.8533 7.64665Z" fill="#005E89"/>
</svg>
