<svg width="32" height="32" viewBox="0 0 32 32" fill="none" xmlns="http://www.w3.org/2000/svg">
<path d="M25.4 12.7601C26.06 11.1001 27.1 9.46012 28.49 7.8801C28.93 7.3801 28.99 6.66013 28.63 6.10013C28.35 5.66013 27.89 5.42014 27.39 5.42014C27.25 5.42014 27.11 5.43009 26.97 5.48014C24.03 6.34013 17.16 9.39012 16.97 19.1701C16.9 22.9401 19.66 26.1801 23.25 26.5501C25.24 26.7501 27.22 26.1001 28.69 24.7801C30.16 23.4501 31 21.5501 31 19.5701C31 16.2701 28.66 13.3801 25.4 12.7601Z" fill="#C7B0F5" fill-opacity="0.25"/>
<path d="M7.28998 26.5501C9.27002 26.7501 11.25 26.1001 12.72 24.7801C14.19 23.4501 15.03 21.5501 15.03 19.5701C15.03 16.2701 12.69 13.3801 9.42999 12.7601C10.09 11.1001 11.13 9.46012 12.52 7.88011C12.96 7.38011 13.02 6.66014 12.66 6.10014C12.38 5.66014 11.92 5.42015 11.42 5.42015C11.28 5.42015 11.14 5.4301 11 5.48015C8.06 6.34014 1.19 9.39012 1 19.1702L1 19.3101C1 23.0201 3.72998 26.1801 7.28998 26.5501Z" fill="#C7B0F5" fill-opacity="0.25"/>
</svg>
