<svg width="18" height="18" viewBox="0 0 18 18" fill="none" xmlns="http://www.w3.org/2000/svg">
<path fill-rule="evenodd" clip-rule="evenodd" d="M0 9C0 4.02923 4.02923 0 9 0C13.9708 0 18 4.02923 18 9C18 13.9708 13.9708 18 9 18C4.02923 18 0 13.9708 0 9ZM12.3323 7.32554C12.3877 7.25174 12.4278 7.16761 12.4502 7.07811C12.4726 6.9886 12.4769 6.89552 12.4628 6.80433C12.4487 6.71314 12.4165 6.62568 12.3682 6.54711C12.3198 6.46853 12.2562 6.40041 12.1812 6.34675C12.1061 6.2931 12.0211 6.25499 11.9311 6.23467C11.8411 6.21435 11.7479 6.21223 11.6571 6.22843C11.5662 6.24462 11.4795 6.27882 11.4021 6.32899C11.3247 6.37917 11.258 6.44432 11.2062 6.52062L8.21908 10.7022L6.72 9.20308C6.58876 9.08079 6.41518 9.01421 6.23583 9.01738C6.05647 9.02054 5.88535 9.0932 5.7585 9.22004C5.63166 9.34688 5.559 9.51801 5.55584 9.69736C5.55267 9.87672 5.61925 10.0503 5.74154 10.1815L7.81846 12.2585C7.88953 12.3295 7.9752 12.3842 8.06953 12.4187C8.16385 12.4533 8.26458 12.467 8.3647 12.4587C8.46483 12.4505 8.56196 12.4205 8.64935 12.3709C8.73674 12.3214 8.81229 12.2534 8.87077 12.1717L12.3323 7.32554Z" fill="#F5F5F5"/>
</svg>
