<svg width="20" height="20" viewBox="0 0 20 20" fill="none" xmlns="http://www.w3.org/2000/svg">
<path d="M11.25 3.38327C11.25 2.26994 9.90334 1.71244 9.11667 2.49994L5.36667 6.24994H3.75667C2.80584 6.24994 1.82501 6.80327 1.54001 7.83744C1.34665 8.54198 1.24911 9.26935 1.25001 9.99994C1.25001 10.7483 1.35084 11.4733 1.54167 12.1624C1.82584 13.1958 2.80667 13.7499 3.75751 13.7499H5.36584L9.11584 17.4999C9.90334 18.2874 11.25 17.7299 11.25 16.6166V3.38327ZM14.8167 7.68327C14.7595 7.62187 14.6905 7.57262 14.6138 7.53846C14.5371 7.5043 14.4544 7.48593 14.3704 7.48445C14.2865 7.48297 14.2032 7.4984 14.1253 7.52984C14.0475 7.56127 13.9768 7.60806 13.9175 7.66741C13.8581 7.72676 13.8113 7.79745 13.7799 7.87528C13.7485 7.9531 13.733 8.03646 13.7345 8.12037C13.736 8.20429 13.7544 8.28706 13.7885 8.36372C13.8227 8.44039 13.8719 8.50939 13.9333 8.56661L15.3667 9.99994L13.9333 11.4333C13.8719 11.4905 13.8227 11.5595 13.7885 11.6362C13.7544 11.7128 13.736 11.7956 13.7345 11.8795C13.733 11.9634 13.7485 12.0468 13.7799 12.1246C13.8113 12.2024 13.8581 12.2731 13.9175 12.3325C13.9768 12.3918 14.0475 12.4386 14.1253 12.47C14.2032 12.5015 14.2865 12.5169 14.3704 12.5154C14.4544 12.514 14.5371 12.4956 14.6138 12.4614C14.6905 12.4273 14.7595 12.378 14.8167 12.3166L16.25 10.8833L17.6833 12.3166C17.7406 12.378 17.8096 12.4273 17.8862 12.4614C17.9629 12.4956 18.0457 12.514 18.1296 12.5154C18.2135 12.5169 18.2968 12.5015 18.3747 12.47C18.4525 12.4386 18.5232 12.3918 18.5825 12.3325C18.6419 12.2731 18.6887 12.2024 18.7201 12.1246C18.7515 12.0468 18.767 11.9634 18.7655 11.8795C18.764 11.7956 18.7457 11.7128 18.7115 11.6362C18.6773 11.5595 18.6281 11.4905 18.5667 11.4333L17.1333 9.99994L18.5667 8.56661C18.6281 8.50939 18.6773 8.44039 18.7115 8.36372C18.7457 8.28706 18.764 8.20429 18.7655 8.12037C18.767 8.03646 18.7515 7.9531 18.7201 7.87528C18.6887 7.79745 18.6419 7.72676 18.5825 7.66741C18.5232 7.60806 18.4525 7.56127 18.3747 7.52984C18.2968 7.4984 18.2135 7.48297 18.1296 7.48445C18.0457 7.48593 17.9629 7.5043 17.8862 7.53846C17.8096 7.57262 17.7406 7.62187 17.6833 7.68327L16.25 9.11661L14.8167 7.68327Z" fill="#E3E3E3"/>
</svg>
