<svg width="20" height="20" viewBox="0 0 20 20" fill="none" xmlns="http://www.w3.org/2000/svg">
<path d="M11.25 3.38291C11.25 2.26957 9.90334 1.71207 9.11667 2.49957L5.36667 6.24957H3.75667C2.80584 6.24957 1.82501 6.80291 1.54001 7.83707C1.34665 8.54161 1.24911 9.26899 1.25001 9.99957C1.25001 10.7479 1.35084 11.4729 1.54167 12.1621C1.82584 13.1954 2.80667 13.7496 3.75751 13.7496H5.36584L9.11584 17.4996C9.90334 18.2871 11.25 17.7296 11.25 16.6162V3.38291ZM15.4867 4.25457C15.6039 4.13753 15.7627 4.07179 15.9283 4.07179C16.094 4.07179 16.2528 4.13753 16.37 4.25457C19.5433 7.42707 19.5433 12.5712 16.37 15.7446C16.2515 15.855 16.0948 15.9151 15.9329 15.9122C15.771 15.9094 15.6165 15.8438 15.502 15.7293C15.3875 15.6147 15.3219 15.4603 15.319 15.2983C15.3162 15.1364 15.3763 14.9797 15.4867 14.8612C16.1252 14.2228 16.6317 13.4649 16.9772 12.6307C17.3228 11.7966 17.5006 10.9025 17.5006 9.99957C17.5006 9.09666 17.3228 8.20259 16.9772 7.36842C16.6317 6.53425 16.1252 5.77632 15.4867 5.13791C15.3696 5.02072 15.3039 4.86187 15.3039 4.69624C15.3039 4.53061 15.3696 4.37176 15.4867 4.25457Z" fill="#E3E3E3"/>
<path d="M13.2767 6.46445C13.3347 6.40637 13.4036 6.3603 13.4795 6.32886C13.5553 6.29743 13.6366 6.28125 13.7188 6.28125C13.8009 6.28125 13.8822 6.29743 13.958 6.32886C14.0339 6.3603 14.1028 6.40637 14.1608 6.46445C14.6252 6.92875 14.9936 7.47999 15.2449 8.08667C15.4963 8.69335 15.6256 9.3436 15.6256 10.0003C15.6256 10.657 15.4963 11.3072 15.2449 11.9139C14.9936 12.5206 14.6252 13.0718 14.1608 13.5361C14.0429 13.6499 13.885 13.7128 13.7211 13.7113C13.5573 13.7098 13.4005 13.644 13.2847 13.5281C13.1689 13.4122 13.1032 13.2554 13.1019 13.0915C13.1005 12.9276 13.1636 12.7698 13.2775 12.6519C13.6257 12.3037 13.902 11.8903 14.0904 11.4354C14.2789 10.9804 14.3759 10.4927 14.3759 10.0003C14.3759 9.50782 14.2789 9.02018 14.0904 8.56521C13.902 8.11024 13.6257 7.69684 13.2775 7.34862C13.1605 7.23143 13.0947 7.07258 13.0947 6.90695C13.0947 6.74132 13.1605 6.58247 13.2775 6.46528L13.2767 6.46445Z" fill="#E3E3E3"/>
</svg>
