<svg width="32" height="32" viewBox="0 0 32 32" fill="none" xmlns="http://www.w3.org/2000/svg">
<g clip-path="url(#clip0_494_346)">
<rect width="32" height="32" rx="6" fill="#005E89"/>
<path d="M27.3403 27.312C33.5877 21.0646 33.5877 10.9354 27.3403 4.688C21.0929 -1.55945 10.9637 -1.55945 4.7163 4.688C-1.53115 10.9354 -1.53115 21.0646 4.7163 27.312C10.9637 33.5594 21.0929 33.5594 27.3403 27.312Z" fill="#005E89"/>
<path fill-rule="evenodd" clip-rule="evenodd" d="M23.9723 14.5778L13.1691 8.34095C12.9193 8.19688 12.636 8.12105 12.3477 8.12109C12.0593 8.12113 11.776 8.19704 11.5262 8.34118C11.2765 8.48532 11.069 8.69264 10.9247 8.9423C10.7804 9.19197 10.7044 9.47521 10.7041 9.76358V22.2386C10.7025 22.5273 10.7776 22.8113 10.922 23.0614C11.0663 23.3115 11.2745 23.5187 11.5254 23.6617C11.7748 23.8074 12.0584 23.8842 12.3473 23.8842C12.6361 23.8842 12.9197 23.8074 13.1691 23.6617L23.9723 17.4242C24.2219 17.2799 24.4293 17.0724 24.5734 16.8226C24.7176 16.5728 24.7934 16.2895 24.7934 16.0011C24.7934 15.7127 24.7176 15.4294 24.5734 15.1796C24.4293 14.9298 24.2219 14.7223 23.9723 14.578V14.5778Z" fill="white"/>
</g>
<defs>
<clipPath id="clip0_494_346">
<rect width="32" height="32" rx="6" fill="white"/>
</clipPath>
</defs>
</svg>
