<svg width="32" height="32" viewBox="0 0 32 32" fill="none" xmlns="http://www.w3.org/2000/svg">
<g clip-path="url(#clip0_285_928)">
<rect width="32" height="32" rx="6" fill="url(#paint0_linear_285_928)"/>
<path fill-rule="evenodd" clip-rule="evenodd" d="M23.9718 14.5759L13.1686 8.339C12.9188 8.19493 12.6355 8.1191 12.3472 8.11914C12.0588 8.11918 11.7755 8.19508 11.5258 8.33923C11.276 8.48337 11.0685 8.69068 10.9242 8.94035C10.7799 9.19002 10.7039 9.47326 10.7036 9.76163V22.2366C10.702 22.5254 10.7772 22.8094 10.9215 23.0594C11.0658 23.3095 11.2741 23.5167 11.5249 23.6598C11.7743 23.8055 12.0579 23.8823 12.3468 23.8823C12.6356 23.8823 12.9192 23.8055 13.1686 23.6598L23.9718 17.4223C24.2215 17.2779 24.4288 17.0705 24.5729 16.8207C24.7171 16.5709 24.7929 16.2875 24.7929 15.9991C24.7929 15.7107 24.7171 15.4274 24.5729 15.1776C24.4288 14.9278 24.2215 14.7203 23.9718 14.576V14.5759Z" fill="#F5F5F5"/>
</g>
<defs>
<linearGradient id="paint0_linear_285_928" x1="16" y1="0" x2="16" y2="32" gradientUnits="userSpaceOnUse">
<stop stop-color="#8E2DE2"/>
<stop offset="1" stop-color="#4A00E0"/>
</linearGradient>
<clipPath id="clip0_285_928">
<rect width="32" height="32" rx="6" fill="white"/>
</clipPath>
</defs>
</svg>
