<svg width="18" height="18" viewBox="0 0 18 18" fill="none" xmlns="http://www.w3.org/2000/svg">
<path d="M11.1225 6.88475C10.703 6.46472 10.1682 6.1786 9.58598 6.06265C9.00368 5.9467 8.40015 6.00614 7.85168 6.2334C7.30319 6.46065 6.83448 6.84552 6.50487 7.33931C6.17525 7.83306 5.99954 8.41356 6 9.00726C5.99937 9.79948 6.31214 10.5598 6.87003 11.1223" stroke="#BEBEBE" stroke-linecap="round" stroke-linejoin="round"/>
<path d="M9 12.0073C9.79567 12.0073 10.5587 11.6913 11.1213 11.1286C11.6839 10.566 12 9.803 12 9.00732" stroke="#BEBEBE" stroke-linecap="round" stroke-linejoin="round"/>
<path d="M13.2075 4.79241L4.785 13.2149C3.4656 11.9973 2.35574 10.5707 1.5 8.99238C5.0325 2.81989 9.33 1.41741 13.2075 4.79241Z" stroke="#BEBEBE" stroke-linecap="round" stroke-linejoin="round"/>
<path d="M15.7495 2.25L13.207 4.7925" stroke="#BEBEBE" stroke-linecap="round" stroke-linejoin="round"/>
<path d="M4.785 13.2148L2.25 15.7498" stroke="#BEBEBE" stroke-linecap="round" stroke-linejoin="round"/>
<path d="M14.6771 6.32227C15.3601 7.16367 15.9698 8.06197 16.4996 9.00727C13.4996 14.2573 9.95213 16.0498 6.57715 14.4223" stroke="#BEBEBE" stroke-linecap="round" stroke-linejoin="round"/>
</svg>
