<svg width="18" height="18" viewBox="0 0 18 18" fill="none" xmlns="http://www.w3.org/2000/svg">
<path d="M11.1225 6.88499C10.703 6.46496 10.1682 6.17884 9.58598 6.06289C9.00368 5.94694 8.40015 6.00638 7.85168 6.23364C7.30319 6.4609 6.83448 6.84577 6.50487 7.33955C6.17525 7.8333 5.99954 8.4138 6 9.0075C5.99937 9.79972 6.31214 10.56 6.87003 11.1225" stroke="white" stroke-linecap="round" stroke-linejoin="round"/>
<path d="M9 12.0075C9.79567 12.0075 10.5587 11.6915 11.1213 11.1288C11.6839 10.5662 12 9.80318 12 9.00751" stroke="white" stroke-linecap="round" stroke-linejoin="round"/>
<path d="M13.2075 4.79253L4.785 13.215C3.4656 11.9975 2.35574 10.5708 1.5 8.9925C5.0325 2.82002 9.33 1.41753 13.2075 4.79253Z" stroke="white" stroke-linecap="round" stroke-linejoin="round"/>
<path d="M15.7495 2.25L13.207 4.7925" stroke="white" stroke-linecap="round" stroke-linejoin="round"/>
<path d="M4.785 13.215L2.25 15.75" stroke="white" stroke-linecap="round" stroke-linejoin="round"/>
<path d="M14.6771 6.32248C15.3601 7.16388 15.9698 8.06219 16.4996 9.00749C13.4996 14.2575 9.95213 16.05 6.57715 14.4225" stroke="white" stroke-linecap="round" stroke-linejoin="round"/>
</svg>
