<svg width="16" height="17" viewBox="0 0 16 17" fill="none" xmlns="http://www.w3.org/2000/svg">
<g clip-path="url(#clip0_42_1037)">
<path d="M5.57374 1.02625C3.97509 1.58083 2.59642 2.63346 1.64023 4.0295C0.684041 5.42554 0.200732 7.09143 0.261296 8.78245C0.32186 10.4735 0.923104 12.1005 1.97671 13.4246C3.03032 14.7486 4.48077 15.6999 6.11499 16.1387C7.4399 16.4806 8.828 16.4956 10.16 16.1825C11.3666 15.9115 12.4822 15.3317 13.3975 14.5C14.3501 13.6079 15.0415 12.4731 15.3975 11.2175C15.7844 9.85208 15.8532 8.41616 15.5987 7.02H8.15874V10.1062H12.4675C12.3814 10.5985 12.1968 11.0683 11.9249 11.4875C11.653 11.9068 11.2993 12.2669 10.885 12.5462C10.3588 12.8943 9.76574 13.1285 9.14374 13.2337C8.51992 13.3497 7.88006 13.3497 7.25624 13.2337C6.62398 13.103 6.02587 12.8421 5.49999 12.4675C4.65518 11.8695 4.02084 11.0199 3.68749 10.04C3.34851 9.04174 3.34851 7.95951 3.68749 6.96125C3.92478 6.26152 4.31703 5.62442 4.83499 5.0975C5.42773 4.48343 6.17816 4.04449 7.00394 3.82884C7.82972 3.61319 8.69894 3.62916 9.51624 3.875C10.1547 4.07099 10.7386 4.41342 11.2212 4.875C11.7071 4.39166 12.1921 3.90708 12.6762 3.42125C12.9262 3.16 13.1987 2.91125 13.445 2.64375C12.7082 1.95809 11.8433 1.42457 10.9 1.07375C9.18212 0.449985 7.30246 0.433222 5.57374 1.02625Z" fill="white"/>
<path d="M5.57372 1.02624C7.3023 0.432816 9.18196 0.449138 10.9 1.07249C11.8435 1.4257 12.708 1.96179 13.4437 2.64999C13.1937 2.91749 12.93 3.16749 12.675 3.42749C12.19 3.91166 11.7054 4.39416 11.2212 4.87499C10.7385 4.41342 10.1547 4.07098 9.51622 3.87499C8.69919 3.6283 7.82999 3.6114 7.00399 3.82617C6.178 4.04094 5.42711 4.47907 4.83372 5.09249C4.31576 5.61941 3.9235 6.25652 3.68622 6.95624L1.09497 4.94999C2.02248 3.1107 3.62841 1.70377 5.57372 1.02624Z" fill="#E33629"/>
<path d="M0.407499 6.93751C0.546775 6.24725 0.778003 5.5788 1.095 4.95001L3.68625 6.96126C3.34727 7.95952 3.34727 9.04175 3.68625 10.04C2.82292 10.7067 1.95917 11.3767 1.095 12.05C0.301437 10.4704 0.0594147 8.67064 0.407499 6.93751Z" fill="#F8BD00"/>
<path d="M8.15876 7.01874H15.5988C15.8533 8.4149 15.7844 9.85082 15.3975 11.2162C15.0416 12.4718 14.3501 13.6067 13.3975 14.4987C12.5613 13.8462 11.7213 13.1987 10.885 12.5462C11.2996 12.2666 11.6535 11.9061 11.9254 11.4864C12.1973 11.0667 12.3817 10.5964 12.4675 10.1037H8.15876C8.15751 9.07624 8.15876 8.04749 8.15876 7.01874Z" fill="#587DBD"/>
<path d="M1.09375 12.05C1.95792 11.3833 2.82167 10.7133 3.685 10.04C4.01901 11.0202 4.65426 11.8698 5.5 12.4675C6.02751 12.8403 6.62691 13.0991 7.26 13.2275C7.88382 13.3435 8.52368 13.3435 9.1475 13.2275C9.76949 13.1222 10.3626 12.888 10.8888 12.54C11.725 13.1925 12.565 13.84 13.4012 14.4925C12.4861 15.3246 11.3705 15.9048 10.1637 16.1762C8.83176 16.4894 7.44365 16.4743 6.11875 16.1325C5.07088 15.8527 4.09209 15.3595 3.24375 14.6837C2.34583 13.9708 1.61244 13.0724 1.09375 12.05Z" fill="#319F43"/>
</g>
<defs>
<clipPath id="clip0_42_1037">
<rect width="16" height="16" fill="white" transform="translate(0 0.5)"/>
</clipPath>
</defs>
</svg>
